<mxfile host="app.diagrams.net" agent="Mozilla/5.0 (Windows NT 10.0; Win64; x64) AppleWebKit/537.36 (KHTML, like Gecko) Chrome/140.0.0.0 Safari/537.36" version="28.2.5">
  <diagram id="Il9Fi1deLX2TvpJTLiLy" name="Página-1">
    <mxGraphModel dx="2633" dy="1067" grid="0" gridSize="10" guides="1" tooltips="1" connect="1" arrows="1" fold="1" page="0" pageScale="1" pageWidth="827" pageHeight="1169" math="0" shadow="0">
      <root>
        <mxCell id="0" />
        <mxCell id="1" parent="0" />
        <mxCell id="qsnHaNQ02W6kuQBdbHIu-49" style="edgeStyle=none;curved=1;rounded=0;orthogonalLoop=1;jettySize=auto;html=1;exitX=0.5;exitY=1;exitDx=0;exitDy=0;entryX=0.5;entryY=0;entryDx=0;entryDy=0;fontSize=12;startSize=8;endSize=8;" parent="1" source="8" target="qsnHaNQ02W6kuQBdbHIu-48" edge="1">
          <mxGeometry relative="1" as="geometry" />
        </mxCell>
        <mxCell id="qsnHaNQ02W6kuQBdbHIu-50" style="edgeStyle=none;curved=1;rounded=0;orthogonalLoop=1;jettySize=auto;html=1;exitX=0.5;exitY=1;exitDx=0;exitDy=0;entryX=0.5;entryY=0;entryDx=0;entryDy=0;fontSize=12;startSize=8;endSize=8;" parent="1" source="8" target="qsnHaNQ02W6kuQBdbHIu-45" edge="1">
          <mxGeometry relative="1" as="geometry" />
        </mxCell>
        <mxCell id="8" value="0. Comparar Pose Com Vídeo Gravado&#xa;1&gt;2" style="whiteSpace=wrap;strokeWidth=2;fontSize=18;" parent="1" vertex="1">
          <mxGeometry x="-53" y="-148" width="260" height="78" as="geometry" />
        </mxCell>
        <mxCell id="qsnHaNQ02W6kuQBdbHIu-43" value="1.1. Escolher Vídeo Base " style="whiteSpace=wrap;strokeWidth=2;fontSize=18;" parent="1" vertex="1">
          <mxGeometry x="-495" y="180" width="260" height="78" as="geometry" />
        </mxCell>
        <mxCell id="qsnHaNQ02W6kuQBdbHIu-44" value="1.2. Escolher Vídeo De Comparação " style="whiteSpace=wrap;strokeWidth=2;fontSize=18;" parent="1" vertex="1">
          <mxGeometry x="-192" y="180" width="260" height="78" as="geometry" />
        </mxCell>
        <mxCell id="qsnHaNQ02W6kuQBdbHIu-46" style="edgeStyle=none;curved=1;rounded=0;orthogonalLoop=1;jettySize=auto;html=1;exitX=0.5;exitY=1;exitDx=0;exitDy=0;entryX=0.5;entryY=0;entryDx=0;entryDy=0;fontSize=12;startSize=8;endSize=8;" parent="1" source="qsnHaNQ02W6kuQBdbHIu-45" target="qsnHaNQ02W6kuQBdbHIu-43" edge="1">
          <mxGeometry relative="1" as="geometry">
            <Array as="points">
              <mxPoint x="-280" y="140" />
            </Array>
          </mxGeometry>
        </mxCell>
        <mxCell id="qsnHaNQ02W6kuQBdbHIu-47" style="edgeStyle=none;curved=1;rounded=0;orthogonalLoop=1;jettySize=auto;html=1;exitX=0.5;exitY=1;exitDx=0;exitDy=0;entryX=0.5;entryY=0;entryDx=0;entryDy=0;fontSize=12;startSize=8;endSize=8;" parent="1" source="qsnHaNQ02W6kuQBdbHIu-45" target="qsnHaNQ02W6kuQBdbHIu-44" edge="1">
          <mxGeometry relative="1" as="geometry" />
        </mxCell>
        <mxCell id="qsnHaNQ02W6kuQBdbHIu-45" value="1. Escolher Vídeos&#xa;1&gt;2 " style="whiteSpace=wrap;strokeWidth=2;fontSize=18;" parent="1" vertex="1">
          <mxGeometry x="-348" y="26" width="260" height="78" as="geometry" />
        </mxCell>
        <mxCell id="qsnHaNQ02W6kuQBdbHIu-56" style="edgeStyle=none;curved=1;rounded=0;orthogonalLoop=1;jettySize=auto;html=1;exitX=0.5;exitY=1;exitDx=0;exitDy=0;entryX=0.5;entryY=0;entryDx=0;entryDy=0;fontSize=12;startSize=8;endSize=8;" parent="1" source="qsnHaNQ02W6kuQBdbHIu-48" target="qsnHaNQ02W6kuQBdbHIu-54" edge="1">
          <mxGeometry relative="1" as="geometry" />
        </mxCell>
        <mxCell id="qsnHaNQ02W6kuQBdbHIu-57" style="edgeStyle=none;curved=1;rounded=0;orthogonalLoop=1;jettySize=auto;html=1;exitX=0.5;exitY=1;exitDx=0;exitDy=0;entryX=0.5;entryY=0;entryDx=0;entryDy=0;fontSize=12;startSize=8;endSize=8;" parent="1" source="qsnHaNQ02W6kuQBdbHIu-48" target="qsnHaNQ02W6kuQBdbHIu-55" edge="1">
          <mxGeometry relative="1" as="geometry" />
        </mxCell>
        <mxCell id="qsnHaNQ02W6kuQBdbHIu-48" value="2. Mostrar Resultados&#xa;1+2" style="whiteSpace=wrap;strokeWidth=2;fontSize=18;" parent="1" vertex="1">
          <mxGeometry x="276" y="26" width="260" height="78" as="geometry" />
        </mxCell>
        <mxCell id="qsnHaNQ02W6kuQBdbHIu-51" value="" style="endArrow=none;html=1;rounded=0;fontSize=12;startSize=8;endSize=8;curved=1;" parent="1" edge="1">
          <mxGeometry width="50" height="50" relative="1" as="geometry">
            <mxPoint x="-494.5" y="266" as="sourcePoint" />
            <mxPoint x="-235.5" y="266" as="targetPoint" />
          </mxGeometry>
        </mxCell>
        <mxCell id="qsnHaNQ02W6kuQBdbHIu-52" value="" style="endArrow=none;html=1;rounded=0;fontSize=12;startSize=8;endSize=8;curved=1;" parent="1" edge="1">
          <mxGeometry width="50" height="50" relative="1" as="geometry">
            <mxPoint x="-191.5" y="265" as="sourcePoint" />
            <mxPoint x="67.5" y="265" as="targetPoint" />
          </mxGeometry>
        </mxCell>
        <mxCell id="qsnHaNQ02W6kuQBdbHIu-54" value="2.1. Mostrar Resultados Simples (UI) " style="whiteSpace=wrap;strokeWidth=2;fontSize=18;" parent="1" vertex="1">
          <mxGeometry x="145" y="180" width="260" height="78" as="geometry" />
        </mxCell>
        <mxCell id="qsnHaNQ02W6kuQBdbHIu-55" value="2.2. Mostrar Resultados Detalhados (PDF) " style="whiteSpace=wrap;strokeWidth=2;fontSize=18;" parent="1" vertex="1">
          <mxGeometry x="435" y="180" width="260" height="78" as="geometry" />
        </mxCell>
        <mxCell id="qsnHaNQ02W6kuQBdbHIu-58" value="" style="endArrow=none;html=1;rounded=0;fontSize=12;startSize=8;endSize=8;curved=1;" parent="1" edge="1">
          <mxGeometry width="50" height="50" relative="1" as="geometry">
            <mxPoint x="146" y="266" as="sourcePoint" />
            <mxPoint x="405" y="266" as="targetPoint" />
          </mxGeometry>
        </mxCell>
        <mxCell id="qsnHaNQ02W6kuQBdbHIu-59" value="" style="endArrow=none;html=1;rounded=0;fontSize=12;startSize=8;endSize=8;curved=1;" parent="1" edge="1">
          <mxGeometry width="50" height="50" relative="1" as="geometry">
            <mxPoint x="435" y="267" as="sourcePoint" />
            <mxPoint x="694" y="267" as="targetPoint" />
          </mxGeometry>
        </mxCell>
      </root>
    </mxGraphModel>
  </diagram>
</mxfile>
